<?xml version="1.0" ?><!DOCTYPE svg  PUBLIC '-//W3C//DTD SVG 1.0//EN'  'http://www.w3.org/TR/2001/REC-SVG-20010904/DTD/svg10.dtd'><svg height="32" style="overflow:visible;enable-background:new 0 0 32 32" viewBox="0 0 32 32" width="32" xml:space="preserve" xmlns="http://www.w3.org/2000/svg" xmlns:xlink="http://www.w3.org/1999/xlink"><g><g id="Github_1_"><path d="M16,0C7.2,0,0,7.2,0,16       c0,8.8,7.2,16,16,16c8.8,0,16-7.2,16-16C32,7.2,24.8,0,16,0z M20,29.7c0-0.1,0-0.2,0-0.3c0-0.5,0-2.3,0-4.4       c0-1.5-0.5-2.5-1.1-3c3.6-0.4,7.3-1.8,7.3-7.9c0-1.7-0.6-3.2-1.6-4.3c0.2-0.4,0.7-2-0.2-4.2c0,0-1.3-0.4-4.4,1.6       c-1.3-0.4-2.6-0.5-4-0.5c-1.4,0-2.7,0.2-4,0.5C8.9,5.2,7.6,5.6,7.6,5.6C6.7,7.8,7.3,9.5,7.4,9.9c-1,1.1-1.6,2.5-1.6,4.3       c0,6.1,3.7,7.5,7.3,7.9c-0.5,0.4-0.9,1.1-1,2.1c-0.9,0.4-3.2,1.1-4.7-1.3c0,0-0.8-1.5-2.5-1.6c0,0-1.6,0-0.1,1       c0,0,1,0.5,1.8,2.3c0,0,0.9,3.1,5.4,2.1c0,1.3,0,2.3,0,2.7c0,0.1,0,0.2,0,0.2C6.2,27.9,2,22.6,2,16.3c0-7.7,6.3-14,14-14       c7.7,0,14,6.3,14,14C30,22.6,25.8,27.9,20,29.7z" id="Github" style="fill-rule:evenodd;clip-rule:evenodd;fill:#C9CACC;"/></g></g></svg>